<?xml version="1.0" encoding="UTF-8" standalone="no"?>
<!-- Created with Inkscape (http://www.inkscape.org/) -->

<svg
   width="100"
   height="100"
   viewBox="0 0 26.458333 26.458334"
   version="1.1"
   id="svg5"
   inkscape:version="1.1-rc (52f87abb86, 2021-05-02)"
   sodipodi:docname="Icono relok.svg"
   xmlns:inkscape="http://www.inkscape.org/namespaces/inkscape"
   xmlns:sodipodi="http://sodipodi.sourceforge.net/DTD/sodipodi-0.dtd"
   xmlns="http://www.w3.org/2000/svg"
   xmlns:svg="http://www.w3.org/2000/svg">
  <sodipodi:namedview
     id="namedview7"
     pagecolor="#ffffff"
     bordercolor="#999999"
     borderopacity="1"
     objecttolerance="10.0"
     gridtolerance="10.0"
     guidetolerance="10.0"
     inkscape:pageshadow="0"
     inkscape:pageopacity="0"
     inkscape:pagecheckerboard="0"
     inkscape:document-units="mm"
     showgrid="false"
     units="px"
     inkscape:zoom="8"
     inkscape:cx="42.5625"
     inkscape:cy="39.1875"
     inkscape:window-width="1920"
     inkscape:window-height="1001"
     inkscape:window-x="-9"
     inkscape:window-y="-9"
     inkscape:window-maximized="1"
     inkscape:current-layer="layer1" />
  <defs
     id="defs2">
    <inkscape:perspective
       sodipodi:type="inkscape:persp3d"
       inkscape:vp_x="0 : 13.229167 : 1"
       inkscape:vp_y="0 : 1000 : 0"
       inkscape:vp_z="26.458333 : 13.229167 : 1"
       inkscape:persp3d-origin="13.229166 : 8.8194447 : 1"
       id="perspective6370" />
  </defs>
  <g
     inkscape:label="BG"
     inkscape:groupmode="layer"
     id="layer1" />
  <g
     inkscape:groupmode="layer"
     id="layer2"
     inkscape:label="Base">
    <path
       style="fill:#ffffff;stroke:none;stroke-width:0.015298"
       d="m 12.728479,20.770951 c 0.354803,0.0028 0.710302,0.0073 1.064309,-0.01676 0.162598,-0.01207 0.325113,-0.03923 0.486541,-0.0622 0.454445,-0.06468 0.905165,-0.189799 1.33799,-0.341918 2.00975,-0.706312 3.658066,-2.308944 4.478857,-4.289084 0.821709,-1.982407 0.764545,-4.268617 -0.119885,-6.2183882 C 19.608376,9.031426 19.087001,8.29704 18.475158,7.6569937 18.003639,7.16374 17.436041,6.7421456 16.848876,6.4013645 16.088882,5.960279 15.248487,5.6575732 14.385761,5.5058937 c -0.441405,-0.077602 -0.876007,-0.0962 -1.322785,-0.0962 -0.441145,0 -0.872141,0.019382 -1.307585,0.098884 C 10.813165,5.6806097 9.9113519,6.023854 9.0946166,6.5304028 8.3942296,6.9647968 7.7734899,7.5154167 7.2438572,8.1494756 5.5272967,10.204467 5.0227978,13.146301 5.9122137,15.676184 c 0.3590176,1.021199 0.932799,1.933394 1.6605916,2.724391 0.6683117,0.726336 1.4954942,1.305691 2.3884666,1.713227 0.8531521,0.389341 1.8265991,0.657147 2.7672071,0.657147 m 0.07602,-14.310203 c 0.203633,-0.024323 0.420068,-0.00449 0.623378,0.00962 0.427611,0.029642 0.844654,0.082412 1.261969,0.1880291 1.187465,0.300537 2.285469,0.9494041 3.131521,1.8450976 1.201147,1.2716605 1.885531,3.0557053 1.809326,4.8177093 -0.102331,2.365587 -1.432882,4.566187 -3.526836,5.6603 -0.733595,0.383307 -1.523741,0.609293 -2.341483,0.707602 -0.671013,0.08069 -1.360782,0.03056 -2.022184,-0.103342 C 11.081381,19.45239 10.439311,19.205502 9.8548349,18.871201 9.1387717,18.461618 8.4903924,17.912061 7.9763196,17.261563 6.3776071,15.238587 6.0655668,12.368663 7.2436041,10.058088 8.0607825,8.455299 9.5041929,7.2485938 11.208035,6.7290956 11.597659,6.610298 12.004198,6.529449 12.409187,6.4897462 c 0.131648,-0.012904 0.264126,-0.013336 0.395314,-0.029 m 0.106426,0.1803099 v 1.323716 h 0.334497 V 6.6410555 H 12.910927 M 16.5904,9.4116228 v 0.015393 l 0.212866,0.230881 c 0.232563,-0.1638946 0.437931,-0.3981302 0.638583,-0.6002739 0.08478,-0.085427 0.201489,-0.1600929 0.26795,-0.2616802 0.04854,-0.074206 -0.09847,-0.2533378 -0.17695,-0.2610956 -0.08806,-0.0087 -0.201899,0.1590461 -0.258248,0.2146881 C 17.048725,8.9725968 16.813738,9.1855307 16.5904,9.4116243 M 8.1516679,9.0422121 c -0.046445,0.059278 -0.1756584,0.18061 -0.1667489,0.2610648 0.0093,0.08404 0.1812837,0.1713592 0.2427705,0.2180435 C 8.481059,9.7136746 8.7278223,9.9454783 9.003111,10.104263 L 9.1685818,9.8439834 8.9270958,9.6288949 8.1516679,9.0422121 m 9.9284871,3.8018329 v 0.338625 h 0.942677 l 0.243271,-1.5e-5 0.09726,-0.0158 0.02429,-0.09193 8.1e-5,-0.230865 H 18.080168 M 8.0756526,13.213459 v -0.338626 h -0.866655 c -0.1181834,0 -0.279636,-0.0292 -0.3930609,0.0049 -0.069757,0.02096 -0.071966,0.258278 -0.032271,0.309057 0.020945,0.02677 0.060683,0.02403 0.090816,0.02459 0.075965,0.0015 0.1520811,7.9e-5 0.2280584,7.9e-5 h 0.9730815 m 9.0770434,2.739784 -0.182454,0.277056 0.699406,0.53298 0.349703,0.236623 c 0.03923,-0.06379 0.156087,-0.167759 0.150265,-0.246042 -0.0064,-0.0864 -0.179538,-0.174239 -0.241492,-0.221476 -0.167585,-0.127787 -0.333878,-0.257342 -0.501747,-0.384788 -0.08837,-0.06709 -0.174608,-0.144408 -0.273681,-0.194355 m -8.5448859,1.585344 0.3953135,-0.352646 0.258476,-0.247627 0.2127833,-0.200173 0.070839,-0.107683 -0.1011869,-0.138452 -0.1064138,-0.07385 -0.2128655,0.181505 -0.5321512,0.507967 -0.1641038,0.200081 0.1793094,0.23088 m 4.3028509,0.538722 v 1.323716 h 0.334497 v -1.323717 z"
       id="path5698"
       sodipodi:nodetypes="ccccccsssssccsccccscccccscccssccccccccccsccccccccccccccccccccscccsccccccccccccccccccccccccc" />
    <path
       id="rect7895"
       style="fill:#ffffff;stroke:#ffffff;stroke-width:0.16821;stroke-dashoffset:1.44378"
       d="m 12.942539,9.0838359 h 0.307334 v 4.1426531 h -0.307334 z" />
    <path
       id="path8367"
       style="fill:#ffffff;stroke:#ffffff;stroke-width:0.170386;stroke-dashoffset:1.44378"
       d="m 17.218904,12.92576 v 0.305158 H 12.93811 V 12.92576 Z" />
  </g>
  <g
     inkscape:groupmode="layer"
     id="layer3"
     inkscape:label="Clock" />
</svg>
