<?xml version="1.0" encoding="UTF-8" standalone="no"?>
<!-- Created with Inkscape (http://www.inkscape.org/) -->

<svg
   width="102mm"
   height="54mm"
   viewBox="0 0 102 54"
   version="1.1"
   id="svg18105"
   inkscape:version="1.1-rc (52f87abb86, 2021-05-02)"
   sodipodi:docname="foam,svg.svg"
   xmlns:inkscape="http://www.inkscape.org/namespaces/inkscape"
   xmlns:sodipodi="http://sodipodi.sourceforge.net/DTD/sodipodi-0.dtd"
   xmlns="http://www.w3.org/2000/svg"
   xmlns:svg="http://www.w3.org/2000/svg">
  <sodipodi:namedview
     id="namedview18107"
     pagecolor="#ffffff"
     bordercolor="#999999"
     borderopacity="1"
     objecttolerance="10.0"
     gridtolerance="10.0"
     guidetolerance="10.0"
     inkscape:pageshadow="0"
     inkscape:pageopacity="0"
     inkscape:pagecheckerboard="0"
     inkscape:document-units="mm"
     showgrid="false"
     inkscape:zoom="1.4142136"
     inkscape:cx="69.296464"
     inkscape:cy="36.415999"
     inkscape:window-width="1920"
     inkscape:window-height="1001"
     inkscape:window-x="-9"
     inkscape:window-y="-9"
     inkscape:window-maximized="1"
     inkscape:current-layer="layer1" />
  <defs
     id="defs18102">
    <rect
       x="-19.79899"
       y="-194.45436"
       width="353.55339"
       height="178.89801"
       id="rect92349" />
    <rect
       x="-80.610173"
       y="-248.19448"
       width="461.03362"
       height="225.56706"
       id="rect88043" />
  </defs>
  <g
     inkscape:label="Capa 1"
     inkscape:groupmode="layer"
     id="layer1">
    <text
       xml:space="preserve"
       transform="scale(0.26458333)"
       id="text88041"
       style="fill:black;fill-opacity:1;line-height:1.25;stroke:none;font-family:sans-serif;font-style:normal;font-weight:normal;font-size:40px;white-space:pre;shape-inside:url(#rect88043)" />
    <text
       xml:space="preserve"
       transform="scale(0.26458333)"
       id="text92347"
       style="fill:black;fill-opacity:1;line-height:1.25;stroke:none;font-family:sans-serif;font-style:normal;font-weight:normal;font-size:40px;white-space:pre;shape-inside:url(#rect92349)" />
    <g
       id="g156726"
       transform="matrix(1.5145545,0,0,1.662891,136.68713,70.802854)">
      <path
         style="fill:#ac50d6;fill-opacity:1;stroke:none;stroke-width:0.264583px;stroke-linecap:butt;stroke-linejoin:miter;stroke-opacity:1"
         d="m -79.854094,-16.402554 c -2.171179,-0.813987 -2.967094,-1.337464 -4.431771,-5.820833 -0.616417,-1.886851 -1.114507,-3.81156 -1.350315,-5.774061 -0.37052,-3.083627 -0.547566,-4.726752 -0.446971,-7.042869 0.120137,-2.766083 1.302778,-3.794988 2.622447,-4.887455 1.498549,-1.24055 2.760268,-2.051786 5.392548,-1.06097 1.227191,0.461927 1.509636,1.151218 1.556088,2.489468 0.02839,0.817774 -1.611813,0.945175 -2.27968,0.416249 -0.353595,-0.280035 -0.451206,-0.856377 -0.86322,-0.890619 -1.185067,-0.09849 -2.215021,1.065948 -2.871669,2.116666 -0.641724,1.026837 -0.926361,2.244709 -0.965478,3.454945 -0.03013,0.932094 0.02313,1.96591 0.115755,2.89388 0.136208,1.364672 0.254468,2.638898 0.595313,3.935678 0.410076,1.560177 0.870296,3.15844 1.620573,4.597135 0.653211,1.252568 1.027349,2.476021 2.497005,3.45612 0.477288,0.318299 -0.231515,1.670182 -0.231515,1.670182 0,0 -0.586921,0.58602 -0.95911,0.446484 z"
         id="path97119"
         sodipodi:nodetypes="ssssssssasssssscs" />
      <path
         style="fill:#ad4fd7;fill-opacity:1;stroke:none;stroke-width:0.264583px;stroke-linecap:butt;stroke-linejoin:miter;stroke-opacity:1"
         d="m -88.937276,-30.074503 c 4.211703,-1.418286 11.108389,-2.689399 11.108389,-2.689399 0,0 1.11185,0.177466 1.26285,0.491106 0.213707,0.443887 0.06031,0.867669 -0.233861,1.262849 -0.334532,0.449393 -1.496709,0.561267 -1.496709,0.561267 l -9.822156,2.198291 c 0,0 -0.81862,0.05782 -0.982215,-0.350791 -0.189466,-0.473228 -0.319389,-1.310643 0.163702,-1.473323 z"
         id="path109513"
         sodipodi:nodetypes="scssccss" />
      <path
         id="path118383"
         style="opacity:1;fill-opacity:0;stroke:none;stroke-width:0.4;stroke-linecap:round;stroke-dashoffset:1.44378;paint-order:markers stroke fill"
         d="m -65.19517,-28.584568 c 0,2.831179 -3.195658,5.525366 -6.762925,5.827886 -3.860704,0.327405 -5.546849,-0.985503 -5.546848,-3.816682 0,-2.831179 2.995765,-5.313391 6.575836,-5.313391 3.580071,0 5.733937,0.471009 5.733937,3.302187 z"
         sodipodi:nodetypes="sssss" />
      <path
         id="path119647"
         style="opacity:1;fill-opacity:0;stroke:none;stroke-width:0.221995;stroke-linecap:round;stroke-dashoffset:1.44378;paint-order:markers stroke fill"
         d="m -67.678632,-27.766385 c 0,1.44352 -1.930513,2.817193 -4.085515,2.971438 -2.33227,0.166932 -3.350878,-0.502474 -3.350878,-1.945994 0,-1.443521 1.809756,-2.709115 3.972494,-2.709115 2.162738,0 3.463899,0.240151 3.463899,1.683671 z"
         sodipodi:nodetypes="sssss" />
      <path
         style="opacity:1;fill:#ac50d6;fill-opacity:1;stroke:none;stroke-width:0.0353552;stroke-linecap:round;stroke-miterlimit:4;stroke-dasharray:none;stroke-dashoffset:1.44378;stroke-opacity:1;paint-order:markers stroke fill"
         d="m -73.759708,-22.945503 c -0.589449,-0.05735 -0.992903,-0.134512 -1.382237,-0.264348 -0.844994,-0.281795 -1.419294,-0.756298 -1.770052,-1.462466 -0.375589,-0.756163 -0.487512,-1.958475 -0.263858,-2.834442 0.20838,-0.816144 0.629598,-1.525444 1.310328,-2.206492 1.036335,-1.03682 2.410431,-1.687441 4.023478,-1.905077 0.738854,-0.09969 2.452582,-0.0578 3.449447,0.08432 2.151534,0.306728 3.036783,1.218094 2.973725,3.061454 -0.02096,0.612907 -0.14038,1.070469 -0.43638,1.672105 -0.286517,0.582356 -0.623828,1.039493 -1.156157,1.566868 -1.326156,1.313812 -3.153612,2.125133 -5.133482,2.279073 -0.285002,0.02215 -1.414862,0.02846 -1.614812,0.009 z m 2.116441,-1.741435 c 1.746218,-0.150458 3.433663,-1.142786 3.9168,-2.303333 0.130458,-0.313372 0.152518,-0.432673 0.150855,-0.815782 -0.0014,-0.315203 -0.0079,-0.369958 -0.06406,-0.539712 -0.218391,-0.659736 -0.820751,-1.020657 -1.926519,-1.154327 -0.670748,-0.08108 -1.906581,-0.08832 -2.392787,-0.014 -0.734567,0.112274 -1.468775,0.386628 -2.022897,0.75591 -0.295661,0.197035 -0.729852,0.623413 -0.89619,0.880065 -0.130497,0.201347 -0.238575,0.441803 -0.302521,0.673055 -0.06198,0.22412 -0.05419,0.829452 0.01392,1.082812 0.176177,0.655341 0.635834,1.095976 1.362519,1.306137 0.549686,0.15897 1.296787,0.203634 2.160883,0.12918 z"
         id="path127308" />
      <path
         style="fill:#ac50d6;fill-opacity:1;stroke:none;stroke-width:0.264583px;stroke-linecap:butt;stroke-linejoin:miter;stroke-opacity:1"
         d="m -54.815949,-33.762796 c -0.42561,-0.05827 -0.871047,-0.192911 -1.286116,-0.0822 -1.203299,0.320954 -2.180098,1.240259 -3.114529,2.063532 -0.633429,0.558078 -1.298062,1.152564 -1.653646,1.918229 -0.324448,0.69862 -0.71576,1.596859 -0.363802,2.282032 0.09011,0.175419 0.333773,0.291273 0.529167,0.264583 1.384277,-0.189089 2.069743,-1.877267 3.108854,-2.811198 0.824588,-0.741123 1.42394,-1.879796 2.480469,-2.215885 0.46522,-0.14799 1.062647,-0.124854 1.455208,0.165364 0.599472,0.443187 0.301531,1.634776 0.928048,2.038828 0.639332,0.412317 1.51038,0.16892 2.246952,-0.02138 0.520507,-0.134476 1.040361,-0.382181 1.422135,-0.760677 0.264351,-0.262082 0.543486,-0.57952 0.535185,-0.98015 -0.02369,-1.143506 -1.468983,-2.75377 -0.904317,-3.934015 0.278852,-0.582845 0.829587,-0.792539 1.495617,-0.795412 0.422867,-0.0018 0.755159,0.0037 1.083038,0.38885 0.907954,1.066499 1.1222,4.051346 1.1222,4.051346 0,0 1.881345,-3.171738 3.355025,-4.193325 0.605154,-0.419505 1.278472,-0.883315 2.011429,-0.725598 1.154727,0.248474 1.598315,1.472527 2.546615,2.335309 1.44376,1.313562 2.684085,-2.992449 4.48138,-3.753776 1.015925,-0.430341 2.148399,-0.601217 3.158463,-0.09922 0.914665,0.454585 1.719792,2.182812 1.719792,2.182812 0,0 0.860766,1.379296 1.554427,1.719792 0.645161,0.316689 1.525083,-0.229435 2.149739,0.16536 0.417282,0.263731 0.618851,0.632684 0.661459,1.124479 0.02793,0.322324 0.07899,0.6867 -0.231511,0.942578 -0.940447,0.775003 -2.48422,0.554199 -3.621484,0.148825 -1.137263,-0.405373 -2.013336,-1.180369 -2.794662,-2.067056 -0.326355,-0.370365 -0.481254,-0.993052 -0.926041,-1.207162 -0.311913,-0.150148 -0.730084,-0.01548 -1.02526,0.165365 -0.541499,0.331758 -0.558053,0.855352 -1.12448,1.53789 -0.620196,0.747329 -1.357227,2.131885 -2.33164,2.530078 -0.643245,0.262861 -1.573557,0.433382 -2.182813,0.09922 -0.959795,-0.526433 -1.021217,-1.763861 -1.901692,-2.414323 -0.269243,-0.198907 -0.66234,-0.452511 -0.959115,-0.297656 -0.859516,0.448488 -1.178362,1.930011 -1.7694,2.89388 -0.559364,0.912214 -1.013073,1.831595 -1.681602,2.734484 -0.281997,0.380855 -0.663253,0.658146 -1.188194,0.731817 -0.442117,0.06205 -1.007036,0.04764 -1.309618,-0.280633 -0.245092,-0.265898 0.06692,-0.701869 -0.239536,-0.893858 -0.250681,-0.157049 -0.582897,0.137722 -0.841899,0.280633 -0.542005,0.299064 -0.855767,0.908286 -1.436237,1.17733 -0.726381,0.336674 -2.35231,0.412924 -2.35231,0.412924 0,0 -1.582066,-0.02911 -2.214341,-0.583477 -0.271481,-0.23803 -0.449717,-0.575764 -0.60285,-0.913233 -0.115244,-0.253971 -0.20982,-0.618915 -0.456859,-0.748353 -0.195302,-0.10233 -0.462721,-0.0147 -0.654812,0.09354 -0.500721,0.28214 -0.725803,0.754593 -1.109318,1.251015 -0.536578,0.694548 -1.048043,1.187724 -1.812766,2.05846 -0.231196,0.263247 -0.525448,0.398647 -0.86646,0.572615 -0.919229,0.468947 -2.133821,0.466546 -3.086965,1e-6 -0.367567,-0.179917 -0.599775,-0.458205 -0.771739,-0.888673 -0.397241,-0.994396 -0.395369,-2.117903 -0.116932,-3.157121 0.198695,-0.741597 0.935442,-2.03459 0.935442,-2.03459 l 1.870888,-2.198291 c 0,0 1.566452,-1.513203 2.549083,-1.964429 1.098387,-0.504382 2.271715,-0.62134 3.437755,-0.654811 0.597307,-0.01715 1.277707,-0.09391 1.777341,0.23386 0.304047,0.199464 0.488151,0.579234 0.561266,0.935443 0.0696,0.339101 0.07702,0.759549 -0.140317,1.028988 -0.229142,0.28407 -0.664917,0.34856 -1.028985,0.374176 -0.365253,0.0257 -0.711956,-0.177476 -1.074729,-0.227139 z"
         id="path127512"
         sodipodi:nodetypes="aaaaaaaasssssssscssssscsssszssssssssssssssscssssssssssccsaaaaaa" />
      <text
         xml:space="preserve"
         style="font-style:normal;font-weight:normal;font-size:5.47556px;line-height:1.25;font-family:sans-serif;fill:#ac50d6;fill-opacity:1;stroke:none;stroke-width:0.13689"
         x="-52.914715"
         y="-20.621555"
         id="text142780"
         transform="scale(1.211384,0.8255021)"><tspan
           sodipodi:role="line"
           id="tspan142778"
           style="fill:#ac50d6;fill-opacity:1;stroke-width:0.13689"
           x="-52.914715"
           y="-20.621555">SEASIDE</tspan><tspan
           sodipodi:role="line"
           style="fill:#ac50d6;fill-opacity:1;stroke-width:0.13689"
           x="-52.914715"
           y="-13.777105"
           id="tspan142782">BAR</tspan></text>
    </g>
  </g>
</svg>
