<?xml version="1.0" encoding="UTF-8" standalone="no"?>
<!-- Created with Inkscape (http://www.inkscape.org/) -->

<svg
   width="100"
   height="100"
   viewBox="0 0 26.458333 26.458334"
   version="1.1"
   id="svg12846"
   sodipodi:docname="Icono Miembros.svg"
   inkscape:export-filename="C:\Users\dante\Desktop\Icono nublado.png"
   inkscape:export-xdpi="96"
   inkscape:export-ydpi="96"
   inkscape:version="1.1-rc (52f87abb86, 2021-05-02)"
   xmlns:inkscape="http://www.inkscape.org/namespaces/inkscape"
   xmlns:sodipodi="http://sodipodi.sourceforge.net/DTD/sodipodi-0.dtd"
   xmlns="http://www.w3.org/2000/svg"
   xmlns:svg="http://www.w3.org/2000/svg">
  <sodipodi:namedview
     id="namedview12848"
     pagecolor="#ffffff"
     bordercolor="#999999"
     borderopacity="1"
     objecttolerance="10.0"
     gridtolerance="10.0"
     guidetolerance="10.0"
     inkscape:pageshadow="0"
     inkscape:pageopacity="0"
     inkscape:pagecheckerboard="0"
     inkscape:document-units="mm"
     showgrid="false"
     units="px"
     inkscape:zoom="5.6568543"
     inkscape:cx="53.47495"
     inkscape:cy="41.277358"
     inkscape:window-width="1920"
     inkscape:window-height="1001"
     inkscape:window-x="-9"
     inkscape:window-y="-9"
     inkscape:window-maximized="1"
     inkscape:current-layer="layer2" />
  <defs
     id="defs12843" />
  <g
     inkscape:groupmode="layer"
     id="layer2"
     inkscape:label="BG">
    <path
       style="fill:#ffffff;stroke:#ffffff;stroke-width:0.0078125"
       d=""
       id="path14440"
       transform="scale(0.26458333)" />
    <path
       style="fill:#ffffff;stroke:#ffffff;stroke-width:0.0078125"
       d=""
       id="path14479"
       transform="scale(0.26458333)" />
  </g>
  <g
     inkscape:groupmode="layer"
     id="layer1"
     inkscape:label="Person 1">
    <path
       id="path9090"
       style="fill:#ffffff;stroke:#000000;stroke-width:0.631724;stroke-dashoffset:1.44378"
       d="m 11.955155,21.967885 c -5.8849989,0.02821 -5.8841087,0.03092 -11.5972588,0 0,-6.160433 2.5961355,-11.15445 5.7986296,-11.15445 3.2024965,0 5.7986292,4.994017 5.7986292,11.15445 z"
       sodipodi:nodetypes="ccsc" />
    <path
       id="path9092"
       style="fill:#ffffff;stroke:#000000;stroke-width:0.773013;stroke-dashoffset:1.44378"
       d="M 9.2953615,8.9755497 A 3.0947284,3.1478572 0 0 1 6.200633,12.123407 3.0947284,3.1478572 0 0 1 3.1059045,8.9755497 3.0947284,3.1478572 0 0 1 6.200633,5.8276925 3.0947284,3.1478572 0 0 1 9.2953615,8.9755497 Z" />
    <path
       id="path9112"
       style="fill:#ffffff;stroke:#000000;stroke-width:0.631724;stroke-dashoffset:1.44378"
       d="m 26.069495,21.275172 c -5.884997,0.02821 -5.884108,0.03092 -11.597257,0 0,-6.160433 2.596135,-11.154451 5.798629,-11.154451 3.202496,0 5.798628,4.994018 5.798628,11.154451 z"
       sodipodi:nodetypes="ccsc" />
    <path
       id="path9114"
       style="fill:#ffffff;stroke:#000000;stroke-width:0.773013;stroke-dashoffset:1.44378"
       d="m 23.409703,8.2828362 a 3.0947284,3.1478572 0 0 1 -3.094728,3.1478568 3.0947284,3.1478572 0 0 1 -3.09473,-3.1478568 3.0947284,3.1478572 0 0 1 3.09473,-3.1478572 3.0947284,3.1478572 0 0 1 3.094728,3.1478572 z" />
  </g>
  <g
     inkscape:groupmode="layer"
     id="layer3"
     inkscape:label="Person 2">
    <path
       id="path6942"
       style="fill:#ffffff;stroke:#000000;stroke-width:0.631724;stroke-dashoffset:1.44378"
       d="m 18.924111,23.030046 c -5.884999,0.02821 -5.884109,0.03092 -11.5972588,0 0,-6.160433 2.5961357,-11.154451 5.7986298,-11.154451 3.202495,0 5.798629,4.994018 5.798629,11.154451 z"
       sodipodi:nodetypes="ccsc" />
    <path
       id="path8862"
       style="fill:#ffffff;stroke:#000000;stroke-width:0.773013;stroke-dashoffset:1.44378"
       d="M 16.264317,10.03771 A 3.0947284,3.1478572 0 0 1 13.169589,13.185567 3.0947284,3.1478572 0 0 1 10.074862,10.03771 3.0947284,3.1478572 0 0 1 13.169589,6.8898533 3.0947284,3.1478572 0 0 1 16.264317,10.03771 Z" />
  </g>
</svg>
