<?xml version="1.0" encoding="UTF-8" standalone="no"?>
<!-- Created with Inkscape (http://www.inkscape.org/) -->

<svg
   width="102mm"
   height="54mm"
   viewBox="0 0 102 54"
   version="1.1"
   id="svg18105"
   inkscape:version="1.1-rc (52f87abb86, 2021-05-02)"
   sodipodi:docname="purple.svg"
   xmlns:inkscape="http://www.inkscape.org/namespaces/inkscape"
   xmlns:sodipodi="http://sodipodi.sourceforge.net/DTD/sodipodi-0.dtd"
   xmlns="http://www.w3.org/2000/svg"
   xmlns:svg="http://www.w3.org/2000/svg">
  <sodipodi:namedview
     id="namedview18107"
     pagecolor="#ffffff"
     bordercolor="#999999"
     borderopacity="1"
     objecttolerance="10.0"
     gridtolerance="10.0"
     guidetolerance="10.0"
     inkscape:pageshadow="0"
     inkscape:pageopacity="0"
     inkscape:pagecheckerboard="0"
     inkscape:document-units="mm"
     showgrid="false"
     inkscape:zoom="2"
     inkscape:cx="87.75"
     inkscape:cy="128.25"
     inkscape:window-width="1920"
     inkscape:window-height="1001"
     inkscape:window-x="-9"
     inkscape:window-y="-9"
     inkscape:window-maximized="1"
     inkscape:current-layer="layer2" />
  <defs
     id="defs18102">
    <rect
       x="-19.79899"
       y="-194.45436"
       width="353.55339"
       height="178.89801"
       id="rect92349" />
    <rect
       x="-80.610173"
       y="-248.19448"
       width="461.03362"
       height="225.56706"
       id="rect88043" />
  </defs>
  <g
     inkscape:label="Capa 1"
     inkscape:groupmode="layer"
     id="layer1"
     style="display:inline">
    <text
       xml:space="preserve"
       transform="scale(0.26458333)"
       id="text88041"
       style="font-style:normal;font-weight:normal;font-size:40px;line-height:1.25;font-family:sans-serif;white-space:pre;shape-inside:url(#rect88043);fill:#000000;fill-opacity:1;stroke:none" />
    <text
       xml:space="preserve"
       transform="scale(0.26458333)"
       id="text92347"
       style="font-style:normal;font-weight:normal;font-size:40px;line-height:1.25;font-family:sans-serif;white-space:pre;shape-inside:url(#rect92349);fill:#000000;fill-opacity:1;stroke:none" />
  </g>
  <g
     inkscape:groupmode="layer"
     id="layer2"
     inkscape:label="Capa 2"
     style="display:inline">
    <path
       style="display:inline;fill:#750075;stroke-width:0.158414;fill-opacity:1"
       d="m 25.531749,39.93252 c -1.25075,-0.416222 -2.41375,-1.203795 -3.13686,-2.124248 -1.14049,-1.451742 -1.08959,-0.606121 -1.08959,-18.101571 V 4.0071728 l -0.4343,-0.09575 c -0.78329,-0.172693 -0.85183,-0.222762 -0.80072,-0.584932 0.066,-0.467639 6.6428,-0.662912 6.81841,-0.202446 0.1552,0.406919 -0.068,0.71817 -0.51502,0.71817 -0.84215,0 -0.80434,-0.799152 -0.80408,16.9946772 3.2e-4,18.360532 -0.0601,17.251206 0.98076,18.018897 0.91814,0.677176 2.52052,0.239306 2.94801,-0.80558 0.13236,-0.323501 0.1695,-4.931879 0.13931,-17.284825 l -0.0412,-16.8437172 -0.55275,-0.07945 c -0.46325,-0.06659 -0.55275,-0.143769 -0.55275,-0.476709 v -0.397257 l 3.33789,-0.04283 c 2.86683,-0.03679 3.35087,-0.0088 3.42997,0.198628 0.15826,0.41499 -0.0685,0.718172 -0.53729,0.718172 -0.71523,0 -0.69952,-0.330376 -0.78206,16.4464602 l -0.079,16.049202 -0.42315,0.724204 c -1.47528,2.524921 -5.04696,3.82175 -7.90565,2.870437 z M 4.971381,39.822708 c -0.36287,-0.365108 -0.0601,-0.83042 0.58084,-0.892603 l 0.51306,-0.04978 0.0402,-17.390063 C 6.137381,7.6831988 6.104831,4.0741248 5.947551,3.9736428 c -0.10896,-0.06961 -0.38594,-0.127656 -0.61551,-0.128993 -0.43904,-0.0026 -0.66132,-0.316306 -0.50831,-0.717497 0.16008,-0.419727 8.275338,-0.344783 9.577228,0.08845 1.76373,0.586914 2.90568,1.548752 3.7625,3.169067 l 0.37812,0.715064 v 6.3561192 6.35612 l -0.41263,0.873967 c -1.01256,2.144628 -2.99192,3.2942 -5.98344,3.475063 l -1.65824,0.100254 v 7.309538 7.309539 l 0.51306,0.04977 c 0.64092,0.06218 0.94371,0.527495 0.58084,0.892604 -0.20812,0.209407 -0.73798,0.24939 -3.304888,0.24939 -2.5669,0 -3.09676,-0.03998 -3.30488,-0.24939 z M 13.378939,22.7476 c 0.9776,-0.599708 0.97757,-0.599438 0.9773,-9.246924 -3.2e-4,-8.6006532 0.01,-8.5064592 -0.96782,-9.2269472 -0.52431,-0.386477 -2.3837,-0.572846 -2.74073,-0.274706 -0.25127,0.209821 -0.38213,18.7149692 -0.13411,18.9645202 0.25872,0.260322 2.34533,0.103067 2.86536,-0.215943 z m 23.31501,17.095451 c -0.42302,-0.316063 -0.12548,-0.787145 0.53918,-0.853667 l 0.49803,-0.04985 -0.0402,-17.508934 -0.0402,-17.5089372 -0.55275,-0.07945 c -0.46325,-0.06659 -0.55274,-0.143769 -0.55274,-0.476708 v -0.397257 h 4.50093 c 5.10809,0 5.48001,0.07185 7.11872,1.375171 1.86017,1.479456 2.03933,2.147395 2.03933,7.6028482 0,5.622855 -0.21762,6.344765 -2.32325,7.706795 -1.18899,0.769105 -1.18178,0.672614 -0.10085,1.350676 2.32267,1.456994 2.42586,1.894635 2.42586,10.28853 0,7.163808 0.002,7.177968 0.79432,7.590493 0.61348,0.319205 0.65729,0.976853 0.0749,1.123935 -1.66627,0.420788 -4.04245,-0.488709 -4.67981,-1.791224 l -0.37447,-0.765274 -0.079,-7.654483 -0.079,-7.654482 -0.39482,-0.430325 c -0.80213,-0.874258 -2.95027,-1.236756 -3.31092,-0.558714 -0.1765,0.331825 -0.24109,17.101392 -0.0676,17.556231 0.0608,0.159478 0.28783,0.251351 0.62106,0.251351 0.64706,0 0.92808,0.554777 0.4567,0.901584 -0.42996,0.316341 -6.04686,0.300454 -6.4735,-0.01831 z m 8.13284,-20.241991 c 1.12922,-0.60935 1.12707,-0.593581 1.0791,-7.922581 l -0.0428,-6.5444602 -0.4648,-0.488004 c -0.77731,-0.816099 -2.89812,-1.14096 -3.24094,-0.49644 -0.10599,0.199267 -0.16349,2.913299 -0.16349,7.7172422 0,8.691323 0.17483,9.168619 2.83297,7.734243 z m 8.08971,20.331458 c -0.42995,-0.274207 -0.1476,-0.887112 0.44812,-0.97274 l 0.55274,-0.07945 0.0402,-17.436401 0.0402,-17.4364022 -0.43499,-0.09593 c -0.77399,-0.170684 -0.82981,-0.212428 -0.82981,-0.620558 v -0.402243 l 4.30352,0.0034 c 5.93589,0.0046 7.45638,0.583817 8.9356,3.403803 l 0.42162,0.803773 v 6.3561192 c 0,7.346301 0.01,7.293213 -1.56902,8.795307 -1.4266,1.357546 -2.47144,1.765108 -4.90602,1.913705 l -1.57927,0.09639 v 7.309537 7.309539 l 0.51305,0.04977 c 0.64092,0.06218 0.94372,0.527496 0.58085,0.892604 -0.27666,0.278373 -6.09862,0.376473 -6.51674,0.10981 z m 8.17096,-17.093273 c 1.07913,-0.561485 1.04214,-0.230996 1.04214,-9.310936 0,-8.9877042 0.0338,-8.6564542 -0.9498,-9.3049252 -0.51734,-0.341068 -2.35594,-0.49499 -2.68002,-0.224361 -0.25127,0.209821 -0.38214,18.7149692 -0.13412,18.9645202 0.20213,0.203373 2.27388,0.108762 2.7218,-0.124298 z m 7.2126,16.983149 c -0.44036,-0.443078 -0.19397,-0.795826 0.62043,-0.888281 l 0.47379,-0.05379 0.0402,-17.30329 c 0.0429,-18.4647612 0.0739,-17.7348212 -0.7533,-17.7348212 -0.45872,0 -0.6841,-0.306973 -0.52727,-0.71817 0.17561,-0.460466 6.75241,-0.265193 6.81841,0.202446 0.0511,0.362231 -0.0173,0.412196 -0.80141,0.585106 l -0.435,0.09593 0.0402,17.4364022 0.0402,17.4364 h 1.42135 1.42135 l 0.079,-5.005444 0.079,-5.005444 h 2.05306 2.05306 l 0.0419,5.402702 c 0.0382,4.938115 0.0186,5.419782 -0.2276,5.60133 -0.44816,0.330411 -12.10559,0.282537 -12.43716,-0.05107 z m 14.37142,0 c -0.44036,-0.443078 -0.19398,-0.795826 0.62043,-0.888281 l 0.47379,-0.05379 0.0402,-17.30329 c 0.0429,-18.4647612 0.0739,-17.7348212 -0.7533,-17.7348212 -0.45817,0 -0.68412,-0.306889 -0.52779,-0.716812 0.08,-0.209757 0.91266,-0.234861 6.58853,-0.198628 l 6.496946,0.04148 v 5.482153 5.4821542 h -2.053056 -2.05306 l -0.0418,-4.9180622 c -0.0314,-3.691654 -0.0904,-4.949153 -0.23689,-5.042738 -0.25586,-0.163514 -2.6642,-0.161548 -2.92084,0.0024 -0.15647,0.09994 -0.19017,1.803475 -0.15793,7.9824432 l 0.041,7.855384 2.36892,0.07945 2.36891,0.07945 0.05,0.436983 0.05,0.436983 -2.26096,0.0024 c -1.24352,0.0012 -2.35039,0.05956 -2.45971,0.129389 -0.15664,0.100061 -0.19009,2.009896 -0.15792,9.015313 l 0.0408,8.888358 h 1.57927 1.57928 l 0.0417,-4.96326 0.0417,-4.963258 0.35309,-0.0884 c 0.19421,-0.04863 1.13484,-0.06761 2.0903,-0.04219 l 1.737206,0.04622 0.0419,5.402702 c 0.0382,4.938115 0.0187,5.419782 -0.2276,5.60133 -0.44844,0.330606 -12.421336,0.282655 -12.753016,-0.05108 z"
       id="path161078"
       sodipodi:nodetypes="ssscscsscssscsscsssscsssscsccscscccsscccsssssscsssssscccsscsssssscsscccssssssssscsssssscccsscsscssscccsssssssssscscsssssccccccccccccccscssssccccccsscccccccsscccccssccccc" />
    <text
       xml:space="preserve"
       style="font-style:normal;font-weight:normal;font-size:8.91862px;line-height:1.25;font-family:sans-serif;display:inline;fill:#878787;fill-opacity:1;stroke:none;stroke-width:0.222965"
       x="8.48283"
       y="42.933075"
       id="text161523"
       transform="scale(0.86410049,1.1572728)"><tspan
         sodipodi:role="line"
         id="tspan161521"
         style="stroke-width:0.222965;fill:#878787;fill-opacity:1"
         x="8.48283"
         y="42.933075">VIP ROOFTOP LOUNGE</tspan></text>
  </g>
</svg>
