<?xml version="1.0" encoding="UTF-8" standalone="no"?>
<!-- Created with Inkscape (http://www.inkscape.org/) -->

<svg
   width="102"
   height="54"
   viewBox="0 0 26.987498 14.287499"
   version="1.1"
   id="svg5"
   inkscape:version="1.1-rc (52f87abb86, 2021-05-02)"
   sodipodi:docname="thenookcafe.svg"
   xmlns:inkscape="http://www.inkscape.org/namespaces/inkscape"
   xmlns:sodipodi="http://sodipodi.sourceforge.net/DTD/sodipodi-0.dtd"
   xmlns="http://www.w3.org/2000/svg"
   xmlns:svg="http://www.w3.org/2000/svg">
  <sodipodi:namedview
     id="namedview7"
     pagecolor="#ffffff"
     bordercolor="#999999"
     borderopacity="1"
     objecttolerance="10.0"
     gridtolerance="10.0"
     guidetolerance="10.0"
     inkscape:pageshadow="0"
     inkscape:pageopacity="0"
     inkscape:pagecheckerboard="0"
     inkscape:document-units="mm"
     showgrid="false"
     units="px"
     inkscape:zoom="5.6568543"
     inkscape:cx="43.133514"
     inkscape:cy="41.807688"
     inkscape:window-width="1920"
     inkscape:window-height="1001"
     inkscape:window-x="-9"
     inkscape:window-y="-9"
     inkscape:window-maximized="1"
     inkscape:current-layer="layer1" />
  <defs
     id="defs2" />
  <g
     inkscape:label="Capa 1"
     inkscape:groupmode="layer"
     id="layer1">
    <g
       id="g104434"
       transform="matrix(0.23838571,0,0,0.18345987,21.532171,16.097506)">
      <ellipse
         style="fill:none;fill-opacity:1;stroke:#5b3b37;stroke-width:3;stroke-linecap:round;stroke-miterlimit:4;stroke-dasharray:none;stroke-dashoffset:1.44378;stroke-opacity:1;paint-order:markers stroke fill"
         id="path1644"
         cx="-23.306679"
         cy="-38.969765"
         rx="16.289614"
         ry="15.41248" />
      <ellipse
         style="fill:#5b3b37;fill-opacity:1;stroke:#5b3b37;stroke-width:1.67897;stroke-linecap:round;stroke-miterlimit:4;stroke-dasharray:none;stroke-dashoffset:1.44378;stroke-opacity:1;paint-order:markers stroke fill"
         id="ellipse32879"
         cx="-23.306679"
         cy="-38.969765"
         rx="8.9306259"
         ry="8.8053207" />
      <ellipse
         style="fill:#ffffff;fill-opacity:1;stroke:#ffffff;stroke-width:0.161516;stroke-linecap:round;stroke-miterlimit:4;stroke-dasharray:none;stroke-dashoffset:1.44378;stroke-opacity:1;paint-order:markers stroke fill"
         id="ellipse39786"
         cx="-23.502884"
         cy="-38.969765"
         rx="0.7927177"
         ry="0.91802198" />
      <text
         xml:space="preserve"
         style="font-style:normal;font-weight:normal;font-size:16.2128px;line-height:1.25;font-family:sans-serif;fill:#5b3b38;fill-opacity:1;stroke:#5b3b38;stroke-width:0.405322;stroke-opacity:1"
         x="-94.499855"
         y="-29.804087"
         id="text49493"
         transform="scale(0.93804767,1.0660439)"><tspan
           sodipodi:role="line"
           id="tspan49491"
           style="fill:#5b3b38;fill-opacity:1;stroke:#5b3b38;stroke-width:0.405322;stroke-opacity:1"
           x="-94.499855"
           y="-29.804087">THE N</tspan></text>
      <text
         xml:space="preserve"
         style="font-style:normal;font-weight:normal;font-size:19.2315px;line-height:1.25;font-family:sans-serif;fill:#5b3b37;fill-opacity:1;stroke:none;stroke-width:0.480787;stroke-opacity:1"
         x="-5.5244026"
         y="-28.338339"
         id="text67289"
         transform="scale(0.93762885,1.0665201)"><tspan
           sodipodi:role="line"
           id="tspan67287"
           style="fill:#5b3b37;fill-opacity:1;stroke:none;stroke-width:0.480787;stroke-opacity:1"
           x="-5.5244026"
           y="-28.338339">OK</tspan></text>
      <text
         xml:space="preserve"
         style="font-style:normal;font-weight:normal;font-size:7.38272px;line-height:1.25;font-family:sans-serif;fill:#5b3b37;fill-opacity:1;stroke:#5b3b37;stroke-width:0.184568;stroke-opacity:1"
         x="-37.28183"
         y="-13.41531"
         id="text78083"
         transform="scale(0.96817118,1.0328752)"><tspan
           sodipodi:role="line"
           id="tspan78081"
           style="fill:#5b3b37;fill-opacity:1;stroke:#5b3b37;stroke-width:0.184568;stroke-opacity:1"
           x="-37.28183"
           y="-13.41531">-CAFE-</tspan></text>
      <path
         style="fill:#5b3b38;fill-opacity:1;stroke:#5b3b38;stroke-width:0.264583px;stroke-linecap:round;stroke-linejoin:miter;stroke-opacity:1"
         d="m -26.00004,-58.510777 c 0,0 -1.990657,-3.276471 -1.963598,-6.071461 0.03213,-3.318997 0.509789,-5.224191 2.5525,-7.02918 5.294731,-4.678552 5.704047,-5.171155 7.15959,-7.585735 1.8851,-3.127168 2.777105,-6.193331 2.777105,-6.193331 0,0 -1.241722,5.894312 -2.796555,8.653056 -1.744217,3.09477 -2.086456,2.462441 -5.760867,6.073398 -1.636345,1.608087 -2.103148,2.831968 -2.556257,4.926764 -0.544813,2.518754 0.588082,7.226489 0.588082,7.226489 z"
         id="path86808"
         sodipodi:nodetypes="cssscsssc" />
      <path
         style="fill:#5b3b38;fill-opacity:1;stroke:#5b3b38;stroke-width:0.230988px;stroke-linecap:butt;stroke-linejoin:miter;stroke-opacity:1"
         d="m -24.483923,-59.884353 c 0,0 -0.323188,-2.967446 0.103419,-5.436064 0.450835,-2.608819 0.36365,-3.426653 2.594568,-5.401594 3.403814,-3.013256 4.351127,-3.584883 5.817096,-5.250886 2.05855,-2.339443 2.044308,-5.796731 2.044308,-5.796731 0,0 0.248704,4.072888 -1.474709,6.311192 -2.040728,2.65042 -2.190548,2.661555 -5.07418,5.116063 -1.406265,1.196994 -2.575264,2.3035 -2.955518,4.206006 -0.457214,2.287546 -1.054984,6.252014 -1.054984,6.252014 z"
         id="path93780"
         sodipodi:nodetypes="cssscsssc" />
      <path
         style="fill:#5b3b38;fill-opacity:1;stroke:#5b3b38;stroke-width:0.230988px;stroke-linecap:butt;stroke-linejoin:miter;stroke-opacity:1"
         d="m -12.77743,-79.00806 c 0,0 0.217375,2.808058 -0.103419,5.436064 -0.343505,2.814059 -0.780587,3.284684 -2.643619,5.448917 -3.066575,3.562357 -3.958716,3.632206 -5.571839,5.519051 -2.032287,2.377134 -2.902709,4.408584 -2.902709,4.408584 0,0 0.413491,-3.000229 2.136904,-5.238533 2.040728,-2.65042 2.239682,-2.382201 5.07418,-5.116063 1.295417,-1.249425 2.501687,-2.713634 2.955518,-4.206006 0.66891,-2.199634 1.054984,-6.252014 1.054984,-6.252014 z"
         id="path104217"
         sodipodi:nodetypes="cssscsssc" />
    </g>
  </g>
</svg>
