<?xml version="1.0" encoding="UTF-8" standalone="no"?>
<!-- Created with Inkscape (http://www.inkscape.org/) -->

<svg
   width="102mm"
   height="54mm"
   viewBox="0 0 102 54"
   version="1.1"
   id="svg18105"
   inkscape:version="1.1-rc (52f87abb86, 2021-05-02)"
   sodipodi:docname="wink.svg"
   xmlns:inkscape="http://www.inkscape.org/namespaces/inkscape"
   xmlns:sodipodi="http://sodipodi.sourceforge.net/DTD/sodipodi-0.dtd"
   xmlns="http://www.w3.org/2000/svg"
   xmlns:svg="http://www.w3.org/2000/svg">
  <sodipodi:namedview
     id="namedview18107"
     pagecolor="#ffffff"
     bordercolor="#999999"
     borderopacity="1"
     objecttolerance="10.0"
     gridtolerance="10.0"
     guidetolerance="10.0"
     inkscape:pageshadow="0"
     inkscape:pageopacity="0"
     inkscape:pagecheckerboard="0"
     inkscape:document-units="mm"
     showgrid="false"
     inkscape:zoom="1.4142136"
     inkscape:cx="173.24116"
     inkscape:cy="110.66221"
     inkscape:window-width="1920"
     inkscape:window-height="1001"
     inkscape:window-x="-9"
     inkscape:window-y="-9"
     inkscape:window-maximized="1"
     inkscape:current-layer="layer1" />
  <defs
     id="defs18102" />
  <g
     inkscape:label="Capa 1"
     inkscape:groupmode="layer"
     id="layer1">
    <g
       id="g44073"
       transform="matrix(1.2189601,0,0,1.4547973,-90.376304,-242.20914)">
      <g
         id="g26494"
         transform="matrix(2.6852774,0,0,1.6937414,-157.37309,-191.28453)"
         style="fill:#ae40fb;fill-opacity:1">
        <g
           aria-label="U
"
           id="text25051"
           style="font-size:10.5833px;line-height:1.25;fill:#ae40fb;fill-opacity:1;stroke-width:0.264583">
          <path
             d="m 97.42522,224.96434 q 0,0.83716 -0.186034,1.46244 -0.180867,0.62011 -0.599445,1.03352 -0.397907,0.39274 -0.930173,0.57361 -0.532265,0.18087 -1.24023,0.18087 -0.723468,0 -1.260901,-0.19121 -0.537433,-0.1912 -0.904335,-0.56327 -0.418578,-0.42374 -0.604612,-1.02319 -0.180867,-0.59944 -0.180867,-1.47277 v -4.60436 h 1.02319 v 4.65604 q 0,0.62528 0.08268,0.98701 0.08785,0.36174 0.289387,0.65629 0.227376,0.3359 0.614948,0.50643 0.392739,0.17053 0.940508,0.17053 0.552936,0 0.940508,-0.16536 0.387572,-0.17054 0.620115,-0.5116 0.201538,-0.29455 0.28422,-0.67179 0.08785,-0.3824 0.08785,-0.94568 v -4.68187 h 1.02319 z"
             id="path26370"
             style="fill:#ae40fb;fill-opacity:1" />
        </g>
        <g
           aria-label="U

"
           id="text23459"
           style="font-size:10.5833px;line-height:1.25;fill:#ae40fb;fill-opacity:1;stroke-width:0.264583">
          <path
             d="m 92.534862,224.96434 q 0,0.83716 -0.186034,1.46244 -0.180867,0.62011 -0.599445,1.03352 -0.397907,0.39274 -0.930173,0.57361 -0.532265,0.18087 -1.24023,0.18087 -0.723468,0 -1.260901,-0.19121 -0.537433,-0.1912 -0.904335,-0.56327 -0.418578,-0.42374 -0.604612,-1.02319 -0.180867,-0.59944 -0.180867,-1.47277 v -4.60436 h 1.02319 v 4.65604 q 0,0.62528 0.08268,0.98701 0.08785,0.36174 0.289387,0.65629 0.227376,0.3359 0.614948,0.50643 0.392739,0.17053 0.940508,0.17053 0.552936,0 0.940508,-0.16536 0.387572,-0.17054 0.620115,-0.5116 0.201538,-0.29455 0.28422,-0.67179 0.08785,-0.3824 0.08785,-0.94568 v -4.68187 h 1.02319 z"
             id="path26367"
             style="fill:#ae40fb;fill-opacity:1" />
        </g>
      </g>
      <text
         xml:space="preserve"
         style="font-style:normal;font-weight:normal;font-size:30.981px;line-height:1.25;font-family:sans-serif;fill:#ae40fb;fill-opacity:1;stroke:none;stroke-width:0.77453"
         x="96.439781"
         y="215.74689"
         id="text27213"
         transform="scale(1.0990156,0.90990518)"><tspan
           sodipodi:role="line"
           id="tspan27211"
           style="fill:#ae40fb;fill-opacity:1;stroke-width:0.77453"
           x="96.439781"
           y="215.74689">ink</tspan></text>
      <text
         xml:space="preserve"
         style="font-style:normal;font-weight:normal;font-size:6.12958px;line-height:1.25;font-family:sans-serif;fill:#ae40fb;fill-opacity:1;stroke:none;stroke-width:0.15324"
         x="75.588654"
         y="253.3898"
         id="text34999"
         transform="scale(1.2505777,0.79963045)"><tspan
           sodipodi:role="line"
           id="tspan34997"
           style="fill:#ae40fb;fill-opacity:1;stroke-width:0.15324"
           x="75.588654"
           y="253.3898">LOBBY BAR</tspan><tspan
           sodipodi:role="line"
           style="fill:#ae40fb;fill-opacity:1;stroke-width:0.15324"
           x="75.588654"
           y="261.05179"
           id="tspan35001" /></text>
      <path
         id="path35569"
         style="opacity:1;fill:#ae40fb;fill-opacity:1;stroke:none;stroke-width:1.37089;stroke-linecap:round;stroke-miterlimit:4;stroke-dasharray:none;stroke-dashoffset:1.44378;paint-order:markers stroke fill"
         d="m 105.9885,175.92576 c -4.4173,0.15049 -4.45986,0.15295 -5.29913,0.0117 -0.83921,-0.1413 -1.410701,-0.9024 -1.276421,-1.69996 0.134271,-0.79757 0.923471,-1.32958 1.762711,-1.18828 0.83926,0.1413 0.81938,0.14941 4.81284,2.87659 z"
         sodipodi:nodetypes="csssc" />
      <path
         id="path36557"
         style="opacity:1;fill:#ae40fb;fill-opacity:1;stroke:none;stroke-width:1.37089;stroke-linecap:round;stroke-miterlimit:4;stroke-dasharray:none;stroke-dashoffset:1.44378;paint-order:markers stroke fill"
         d="m 108.05979,174.58544 c -3.5561,-2.62477 -3.59098,-2.64926 -4.16117,-3.28109 -0.57012,-0.63184 -0.54553,-1.5833 0.0549,-2.12512 0.60047,-0.54183 1.54944,-0.46885 2.11958,0.16301 0.57015,0.63186 0.54953,0.62588 1.98662,5.24324 z"
         sodipodi:nodetypes="csssc" />
      <path
         id="path36559"
         style="opacity:1;fill:#ae40fb;fill-opacity:1;stroke:none;stroke-width:1.37089;stroke-linecap:round;stroke-miterlimit:4;stroke-dasharray:none;stroke-dashoffset:1.44378;paint-order:markers stroke fill"
         d="m 110.95541,174.06532 c -1.41414,-4.18753 -1.42873,-4.22758 -1.53475,-5.07202 -0.10595,-0.84441 0.45871,-1.6106 1.26117,-1.71132 0.8025,-0.1007 1.53895,0.50222 1.64491,1.34666 0.10596,0.84445 0.0925,0.82774 -1.37141,5.43668 z"
         sodipodi:nodetypes="csssc" />
      <path
         id="path36561"
         style="opacity:1;fill:#ae40fb;fill-opacity:1;stroke:none;stroke-width:1.37089;stroke-linecap:round;stroke-miterlimit:4;stroke-dasharray:none;stroke-dashoffset:1.44378;paint-order:markers stroke fill"
         d="m 113.66607,174.62388 c 1.32244,-4.21739 1.33423,-4.25835 1.74571,-5.00333 0.41153,-0.74492 1.31905,-1.03178 2.02698,-0.64072 0.70795,0.39109 0.94824,1.31203 0.53671,2.05698 -0.41154,0.74495 -0.41258,0.72352 -4.30947,3.58702 z"
         sodipodi:nodetypes="csssc" />
      <path
         id="path36563"
         style="opacity:1;fill:#ae40fb;fill-opacity:1;stroke:none;stroke-width:1.37089;stroke-linecap:round;stroke-miterlimit:4;stroke-dasharray:none;stroke-dashoffset:1.44378;paint-order:markers stroke fill"
         d="m 116.03043,175.75961 c 3.68616,-2.43873 3.72114,-2.46309 4.51032,-2.78169 0.78919,-0.31853 1.67436,0.0312 1.97709,0.78121 0.30273,0.74999 -0.0916,1.61622 -0.88084,1.93476 -0.7892,0.31854 -0.77649,0.30126 -5.60659,0.0656 z"
         sodipodi:nodetypes="csssc" />
    </g>
  </g>
</svg>
